<svg version="1.1" id="logo-beko" xmlns="http://www.w3.org/2000/svg" xmlns:xlink="http://www.w3.org/1999/xlink" x="0px" y="0px"
	 viewBox="0 0 400 131" enable-background="new 0 0 400 131" xml:space="preserve">
	<g>
		<polygon fill="#006CB6" points="398,66.2 323.6,66.2 332,70.6 389.9,70.6 339.6,122 284.2,65.5 339.6,9 389,59.4 332,59.4 
			323.6,63.9 398,63.9 398,61.6 339.6,2 277.4,65.5 339.6,129 398,69.4 	"/>
		<path fill="#006CB6" d="M272.9,27.4c1.7,0,3.1-0.1,3.1-1.9c0-1.6-1.3-1.8-2.6-1.8H271v3.7H272.9z M269.1,21.9h4.6
			c2.7,0,4.1,1.2,4.1,3.6c0,2.2-1.4,3.2-3.2,3.4l3.4,5.3h-1.8l-3.3-5.1h-2v5.1h-1.8V21.9z M281.6,28c0-4.8-3.8-8.8-8.4-8.8
			c-4.7,0-8.4,3.9-8.4,8.8c0,4.8,3.8,8.8,8.4,8.8C277.9,36.8,281.6,32.8,281.6,28 M273.2,17.5c5.7,0,10.2,4.7,10.2,10.5
			c0,5.8-4.6,10.5-10.2,10.5c-5.7,0-10.2-4.7-10.2-10.5C263,22.2,267.6,17.5,273.2,17.5"/>
		<path fill="#006CB6" d="M204.2,86.4c2.6,4.9,6.4,8.6,11.3,11.2c5,2.5,10.2,3.8,15.6,3.8c8.8,0,16.2-3,22-9.1
			c5.8-6.1,8.7-13.8,8.7-23c0-9.2-2.9-16.8-8.6-22.8c-5.8-6-13.2-9-22.2-9c-5.8,0-11.1,1.3-15.9,4c-4.7,2.7-8.4,6.5-11,11.5
			c-2.6,5-3.9,10.3-3.9,15.6C200.3,75.5,201.6,81.5,204.2,86.4 M220.7,55.5c2.8-3.2,6.2-4.8,10.3-4.8c4.1,0,7.5,1.6,10.3,4.8
			c2.8,3.2,4.2,7.8,4.2,13.8c0,6.1-1.4,10.8-4.2,14c-2.8,3.2-6.2,4.8-10.3,4.8c-4.1,0-7.5-1.6-10.3-4.8c-2.8-3.2-4.2-7.8-4.2-13.9
			C216.5,63.3,217.9,58.7,220.7,55.5"/>
		<polygon fill="#006CB6" points="142.3,99.9 142.3,15.7 158.1,15.7 158.1,60.3 176.6,38.9 196.1,38.9 175.6,61.2 197.6,99.9 
			180.5,99.9 165.4,72.4 158.1,80.3 158.1,99.9 	"/>
		<path fill="#006CB6" d="M107.1,87.2c-1.7,1.4-3.8,2.1-6.3,2.1c-3.6,0-6.7-1.3-9.1-4c-2.4-2.7-3.7-6.4-3.8-11.2h39.8
			c0.2-12.4-2.2-21.6-7.4-27.6c-5.2-6-12.2-9-21.1-9c-7.9,0-14.5,2.9-19.7,8.6c-5.2,5.8-7.8,13.7-7.8,23.9c0,8.5,2,15.5,5.9,21.1
			c5,7,12.7,10.4,23.1,10.4c6.6,0,12-1.6,16.4-4.7c4.4-3.1,7.6-7.6,9.6-13.6L111,80.5C110.1,83.5,108.8,85.8,107.1,87.2 M88.2,64.1
			c0-4.4,1.1-8,3.3-10.6c2.3-2.6,5.1-3.9,8.6-3.9c3.2,0,6,1.2,8.2,3.7c2.3,2.5,3.4,6,3.6,10.8H88.2z"/>
		<path fill="#006CB6" d="M16.7,99.9v-8.9c2.4,3.4,5.3,6,8.6,7.8c3.3,1.8,6.7,2.7,10.1,2.7c6.9,0,12.8-2.8,17.7-8.5
			c4.9-5.7,7.3-13.7,7.3-24.2c0-10.1-2.4-17.9-7.1-23.3c-4.8-5.4-10.8-8.1-18.1-8.1c-6.7,0-12.5,2.8-17.3,8.5V15.7H2v84.2H16.7z
			 M21.4,54.2c2.5-3,5.7-4.5,9.5-4.5c3.9,0,7.1,1.6,9.6,4.7c2.5,3.1,3.7,8.2,3.7,15.2c0,6.6-1.2,11.4-3.7,14.5
			c-2.5,3.1-5.5,4.6-9,4.6c-4.6,0-8.2-2.2-11-6.5c-2-3.1-2.9-7.8-2.9-14.1C17.6,61.9,18.9,57.3,21.4,54.2"/>
	</g>
</svg>
