<svg viewBox="0 0 161 39" fill="none" xmlns="http://www.w3.org/2000/svg">
<g clip-path="url(#clip0_1751_54084)">
<path d="M60.0214 22.3942C59.0512 21.5553 57.1401 20.8884 54.3216 20.385C57.4454 20.1795 59.9377 19.5545 60.9874 18.5059C62.0496 17.4615 62.1834 15.4188 62.1834 12.382C62.1834 9.04743 61.4307 6.62723 59.9294 5.10465C58.4239 3.59045 57.3617 2.64251 54.9781 2.27339C52.5987 1.90009 48.4796 1.71973 41.751 1.71973H35.1688C34.4412 1.71973 33.8516 2.31114 33.8516 3.04098V37.6788C33.8516 38.4086 34.4412 39 35.1688 39H44.6072C45.3348 39 45.9245 38.4086 45.9245 37.6788V23.6022C45.9245 23.3589 46.1252 23.1576 46.3677 23.1618C48.0614 23.1995 49.1277 23.4512 49.5543 23.9084C50.0185 24.4117 50.261 25.7036 50.261 27.7924V37.6788C50.261 38.4086 50.8507 39 51.5783 39H60.8661C61.5937 39 62.1834 38.4086 62.1834 37.6788V30.4685C62.1834 27.3185 62.0705 25.389 61.8279 24.6885C61.5979 23.9881 60.9832 23.2247 60.0214 22.3942ZM50.261 13.5649C50.261 15.2846 49.939 16.3038 49.2908 16.6184C48.7054 16.8994 47.731 17.0546 46.3677 17.084C46.1252 17.0882 45.9245 16.8869 45.9245 16.6436V8.85029C45.9245 8.60282 46.1252 8.40568 46.3719 8.40987C47.7728 8.44343 48.7597 8.63638 49.3243 8.98871C49.9474 9.3746 50.261 10.1841 50.261 11.4257V13.5649Z" fill="#5C5F61"/>
<path d="M93.4507 3.4774L85.2041 25.3515C85.1581 25.4563 85.1372 25.5654 85.1372 25.6744V37.7377C85.1372 38.434 84.5476 39.0002 83.8199 39.0002H74.1139C73.3863 39.0002 72.7967 38.434 72.7967 37.7377V25.6702C72.7967 25.5612 72.7757 25.4563 72.7339 25.3557L64.3828 3.46062C64.0316 2.63012 64.6714 1.72412 65.6039 1.72412H74.7036C75.3141 1.72412 75.8452 2.12679 75.9874 2.69723L79.0066 16.6815L82.0427 2.69723C82.1848 2.12679 82.7159 1.72832 83.3265 1.72832H92.2379C93.1788 1.72832 93.8145 2.6469 93.4548 3.4774" fill="#5C5F61"/>
<path d="M121.252 3.05367V9.34954C121.252 9.47538 121.227 9.60121 121.173 9.71446L110.894 30.5651C110.76 30.8587 110.973 31.19 111.295 31.19H119.935C120.663 31.19 121.252 31.7815 121.252 32.5113V37.6789C121.252 38.4087 120.663 39.0001 119.935 39.0001H98.4696C97.742 39.0001 97.1523 38.4087 97.1523 37.6789V33.5138C97.1523 33.3963 97.1732 33.2831 97.2192 33.174L107.473 10.1507C107.594 9.86127 107.381 9.54249 107.067 9.54249H98.4738C97.7462 9.54249 97.1565 8.95107 97.1565 8.22124V3.05367C97.1565 2.32384 97.742 1.73242 98.4738 1.73242H119.935C120.663 1.73242 121.252 2.32384 121.252 3.05367Z" fill="#5C5F61"/>
<path d="M146.983 1.72412H132.907C132.271 1.72412 131.727 2.17712 131.61 2.80209L124.409 37.4357C124.259 38.2494 124.882 39.0002 125.706 39.0002H135.947C136.62 39.0002 137.185 38.4927 137.256 37.8216L137.929 31.5718C137.954 31.3495 138.142 31.1776 138.364 31.1776H142.692C142.918 31.1776 143.11 31.3495 143.131 31.5802L143.692 37.8006C143.754 38.4801 144.323 39.0044 145.005 39.0044H155.024C155.861 39.0044 156.484 38.2326 156.312 37.4105L148.275 2.77693C148.145 2.16454 147.61 1.72832 146.987 1.72832M138.092 23.7576L140.526 10.0124L142.96 23.7576C143.002 24.026 142.797 24.2693 142.525 24.2693H138.523C138.251 24.2693 138.046 24.026 138.088 23.7576H138.092Z" fill="#5C5F61"/>
<path d="M160.503 1.80361C160.172 1.22478 159.712 0.780168 159.118 0.465584C158.525 0.155195 157.918 0 157.295 0C156.672 0 156.066 0.155195 155.472 0.465584C154.878 0.775973 154.414 1.22478 154.084 1.80361C153.753 2.38245 153.586 2.98645 153.586 3.61981C153.586 4.25317 153.749 4.8404 154.075 5.41504C154.401 5.99387 154.861 6.43848 155.447 6.75726C156.036 7.07604 156.651 7.23543 157.291 7.23543C157.931 7.23543 158.55 7.07604 159.135 6.75726C159.725 6.44268 160.181 5.99387 160.507 5.41504C160.837 4.8404 160.996 4.24478 160.996 3.61981C160.996 2.99484 160.829 2.38245 160.498 1.80361M159.972 5.11723C159.7 5.5954 159.319 5.9687 158.826 6.23715C158.336 6.5014 157.822 6.63981 157.287 6.63981C156.752 6.63981 156.241 6.50559 155.748 6.23715C155.259 5.9687 154.874 5.59959 154.602 5.11723C154.33 4.63906 154.192 4.13992 154.192 3.61981C154.192 3.0997 154.33 2.59217 154.61 2.10561C154.886 1.62325 155.275 1.24995 155.769 0.98989C156.262 0.729834 156.768 0.599806 157.287 0.599806C157.805 0.599806 158.311 0.729834 158.805 0.98989C159.298 1.24995 159.687 1.62325 159.963 2.10561C160.239 2.58798 160.377 3.0955 160.377 3.61981C160.377 4.14412 160.243 4.63906 159.972 5.11723Z" fill="#5C5F61"/>
<path d="M158.064 4.0856C157.98 4.0059 157.867 3.93879 157.725 3.88007C158.068 3.8549 158.344 3.73746 158.553 3.52354C158.762 3.31382 158.863 3.06635 158.863 2.78112C158.863 2.57979 158.8 2.39104 158.679 2.21068C158.553 2.03451 158.386 1.90448 158.177 1.83318C157.968 1.76187 157.629 1.72412 157.161 1.72412H155.789V5.62076H156.433V3.96815H156.809C157.035 3.96815 157.211 4.01429 157.328 4.10237C157.499 4.21982 157.721 4.52601 158.001 5.00838L158.357 5.62076H159.143L158.658 4.85738C158.424 4.49665 158.227 4.24079 158.068 4.0856M157.219 3.42707H156.437V2.25262H157.169C157.483 2.25262 157.7 2.27359 157.817 2.31973C157.934 2.36168 158.022 2.43298 158.089 2.52107C158.156 2.61334 158.189 2.71401 158.189 2.83146C158.189 3.01182 158.118 3.15443 157.985 3.26348C157.851 3.37254 157.596 3.42707 157.223 3.42707H157.219Z" fill="#5C5F61"/>
<path d="M27.6335 21.4002C26.45 20.2299 24.2044 19.3869 20.8965 18.8793C23.8698 18.4221 25.8562 17.7636 26.8682 16.8996C27.8802 16.0439 28.3778 14.5255 28.3778 12.3402C28.3778 9.11885 27.6669 6.78254 26.2409 5.33126C24.8107 3.88418 22.9331 2.91945 20.608 2.44548C18.2829 1.96731 16.6144 1.73242 12.1064 1.73242H1.31727C0.589636 1.73242 0 2.29448 0 2.99076V37.746C0 38.4423 0.589636 39.0043 1.31727 39.0043H14.3813C20.1438 39.0043 22.1971 38.7862 24.0538 38.3374C25.9147 37.8886 27.2696 37.0623 28.1185 35.8543C28.98 34.6379 29.3982 32.7756 29.3982 30.2589V26.8027C29.3982 24.3825 28.8044 22.583 27.6335 21.4044M16.8318 29.1515C16.8318 30.6532 16.5516 31.6053 15.9955 31.9828C15.4811 32.3393 14.3436 32.5532 12.5915 32.6162C12.3447 32.6246 12.1398 32.4316 12.1398 32.1967V22.6292C12.1398 22.3943 12.3447 22.2013 12.5956 22.2097C14.4565 22.2726 15.6149 22.4656 16.0791 22.7802C16.5809 23.1199 16.836 24.0847 16.836 25.6785V29.1515H16.8318ZM16.2505 15.6748C15.8658 16.1404 14.9709 16.3752 13.5658 16.3752C13.3107 16.3752 12.9845 16.3752 12.5915 16.3878C12.3447 16.392 12.1398 16.2033 12.1398 15.9684V8.52743C12.1398 8.29254 12.3447 8.10379 12.5915 8.10799C13.8125 8.13315 14.6573 8.20026 15.1131 8.31351C15.6233 8.43096 16.0331 8.72877 16.3551 9.20274C16.6687 9.66413 16.8318 10.482 16.8318 11.6523C16.8318 13.8586 16.6353 15.1966 16.2505 15.6664V15.6748Z" fill="#5C5F61"/>
</g>
<defs>
<clipPath id="clip0_1751_54084">
<rect width="161" height="39" fill="white"/>
</clipPath>
</defs>
</svg>
