<svg viewBox="0 0 292 32" fill="none" xmlns="http://www.w3.org/2000/svg">
<path fill-rule="evenodd" clip-rule="evenodd" d="M90.8756 19.9589H83.242L87.2594 10.8305L90.8756 19.9589ZM92.174 3.47119H83.2013L70.5239 31.3476H78.3342L80.6114 26.1208H93.1324L95.26 31.3476H103.723C103.73 31.3476 92.174 3.47119 92.174 3.47119Z" fill="black"/>
<path fill-rule="evenodd" clip-rule="evenodd" d="M202.994 3.37019H203.748C204.115 3.37019 204.36 3.31638 204.489 3.20875C204.618 3.10111 204.686 2.95985 204.686 2.78495C204.686 2.67059 204.652 2.56969 204.591 2.48224C204.53 2.39479 204.441 2.32752 204.326 2.28043C204.217 2.24007 204 2.21316 203.701 2.21316H202.994V3.37019ZM202.368 5.52281V1.69519H203.694C204.149 1.69519 204.475 1.72882 204.679 1.80282C204.883 1.87009 205.046 1.9979 205.169 2.1728C205.291 2.3477 205.352 2.53605 205.352 2.73113C205.352 3.00694 205.25 3.25583 205.046 3.46437C204.849 3.66618 204.577 3.78726 204.244 3.81417C204.38 3.86798 204.489 3.93525 204.577 4.01598C204.734 4.1707 204.924 4.41959 205.148 4.77612L205.617 5.52281H204.856L204.516 4.91739C204.244 4.4465 204.027 4.15052 203.864 4.02943C203.748 3.94198 203.585 3.89489 203.361 3.89489H202.994V5.51608C202.994 5.52281 202.368 5.52281 202.368 5.52281ZM203.945 0.585243C203.435 0.585243 202.953 0.713055 202.47 0.968678C201.994 1.2243 201.62 1.59428 201.349 2.06517C201.077 2.53605 200.941 3.03385 200.941 3.55182C200.941 4.06307 201.07 4.55413 201.335 5.02502C201.6 5.4959 201.967 5.85916 202.443 6.12151C202.919 6.38386 203.415 6.51167 203.932 6.51167C204.448 6.51167 204.944 6.37713 205.42 6.12151C205.896 5.85916 206.27 5.4959 206.528 5.02502C206.793 4.55413 206.923 4.06307 206.923 3.55182C206.923 3.03385 206.787 2.53605 206.521 2.06517C206.25 1.58756 205.876 1.2243 205.4 0.968678C204.938 0.719781 204.448 0.585243 203.945 0.585243ZM203.945 0C204.55 0 205.135 0.154719 205.713 0.457431C206.29 0.760143 206.739 1.20412 207.058 1.76918C207.378 2.34097 207.534 2.93294 207.534 3.55182C207.534 4.16397 207.378 4.74921 207.065 5.31427C206.746 5.87934 206.304 6.31659 205.733 6.63275C205.162 6.94892 204.571 7.10364 203.945 7.10364C203.327 7.10364 202.728 6.94892 202.157 6.63275C201.587 6.32331 201.145 5.88606 200.825 5.31427C200.506 4.74921 200.349 4.16397 200.349 3.55182C200.349 2.93294 200.513 2.33424 200.832 1.76918C201.151 1.20412 201.6 0.760143 202.178 0.457431C202.749 0.154719 203.34 0 203.945 0Z" fill="black"/>
<path fill-rule="evenodd" clip-rule="evenodd" d="M185.102 8.99379C179.372 8.99379 175.572 12.2967 175.572 17.3352C175.572 22.5553 179.257 25.8649 185.102 25.8649C190.887 25.8649 194.633 22.562 194.633 17.4159C194.633 12.3034 190.887 8.99379 185.102 8.99379ZM185.102 2.8252C189.868 2.8252 193.667 3.82751 196.76 5.83213C200.614 8.422 202.388 12.0142 202.388 17.4092C202.388 22.7974 200.614 26.3964 196.76 28.9862C193.722 30.9908 189.813 31.9999 185.157 31.9999C180.392 31.9999 176.538 30.9908 173.499 28.9862C169.495 26.3089 167.823 22.7974 167.823 17.1603C167.823 12.0209 169.699 8.34128 173.499 5.83213C176.585 3.82751 180.392 2.8252 185.102 2.8252Z" fill="black"/>
<path fill-rule="evenodd" clip-rule="evenodd" d="M155.88 3.47792C161.814 3.47792 165.281 7.56116 165.342 11.8866C165.342 17.9206 162.467 20.7661 157.437 21.2236L166.24 31.3476H157.743L149.171 21.4523H145.779V31.3476H138.309V3.47119C138.295 3.47792 155.88 3.47792 155.88 3.47792ZM145.833 9.6936H155.506C159.313 10.1174 159.027 14.9272 155.595 15.1357H145.833C145.833 15.129 145.833 9.6936 145.833 9.6936Z" fill="black"/>
<path fill-rule="evenodd" clip-rule="evenodd" d="M113.355 15.8085L125.849 3.47803H135.019L123.218 15.0214L135.447 31.3477H126.413L118.025 20.0868L113.348 24.5871V31.3477H105.735V3.47803H113.342L113.355 15.8085Z" fill="black"/>
<path fill-rule="evenodd" clip-rule="evenodd" d="M56.4736 15.2165V9.6668H74.9356V3.47803H48.7449V31.3477H56.4736V21.2708H69.0694V15.2165H56.4736Z" fill="black"/>
<path fill-rule="evenodd" clip-rule="evenodd" d="M42.4504 3.46436H16.2732L0 31.3542H26.1772L42.4504 3.46436Z" fill="#50AC28"/>
<path d="M42.4504 3.46436H16.2732L0 31.3542H26.1772L42.4504 3.46436Z" stroke="#50AC28" stroke-width="0.00028" stroke-miterlimit="22.9256"/>
<path d="M221.232 9.04765C221.232 8.26733 221.375 7.5341 221.667 6.8614C221.96 6.18871 222.361 5.59674 222.884 5.09222C223.401 4.5877 224.019 4.19754 224.74 3.91501C225.46 3.63248 226.256 3.49121 227.119 3.49121C227.975 3.49121 228.764 3.63248 229.491 3.91501C230.218 4.19754 230.837 4.59443 231.36 5.09222C231.884 5.59674 232.292 6.18198 232.584 6.8614C232.876 7.5341 233.019 8.26733 233.019 9.04765C233.019 9.82798 232.87 10.5612 232.584 11.2339C232.292 11.9066 231.884 12.4986 231.36 13.0031C230.837 13.5076 230.212 13.8978 229.491 14.1803C228.764 14.4628 227.975 14.6041 227.119 14.6041C226.256 14.6041 225.46 14.4628 224.74 14.1803C224.019 13.8978 223.401 13.5009 222.884 13.0031C222.367 12.4986 221.96 11.9133 221.667 11.2339C221.375 10.5612 221.232 9.8347 221.232 9.04765ZM224.121 9.04765C224.121 9.46472 224.203 9.85489 224.359 10.2047C224.522 10.5612 224.733 10.8639 225.012 11.1263C225.283 11.3886 225.603 11.5904 225.963 11.7317C226.324 11.873 226.711 11.947 227.112 11.947C227.52 11.947 227.901 11.873 228.261 11.7317C228.621 11.5904 228.941 11.3819 229.219 11.1263C229.498 10.8639 229.715 10.5612 229.879 10.2047C230.042 9.84816 230.117 9.46472 230.117 9.04765C230.117 8.63058 230.035 8.24042 229.879 7.89062C229.715 7.53409 229.498 7.23138 229.219 6.96903C228.941 6.70668 228.621 6.50488 228.261 6.36361C227.901 6.22234 227.513 6.14835 227.112 6.14835C226.704 6.14835 226.324 6.22234 225.963 6.36361C225.603 6.50488 225.283 6.71341 225.012 6.96903C224.74 7.23138 224.522 7.53409 224.359 7.89062C224.203 8.24715 224.121 8.63058 224.121 9.04765Z" fill="#50AC28"/>
<path d="M241.562 6.10117H238.232V7.86363H241.263V10.1844H238.232V14.3215H235.465V3.78711H241.562V6.10117Z" fill="#50AC28"/>
<path d="M250.019 6.10117H246.688V7.86363H249.719V10.1844H246.688V14.3215H243.921V3.78711H250.019V6.10117Z" fill="#50AC28"/>
<path d="M255.137 3.78711V14.3148H252.371V3.78711H255.137Z" fill="#50AC28"/>
<path d="M265.734 7.30549C265.095 6.53189 264.307 6.14846 263.362 6.14846C262.947 6.14846 262.567 6.22245 262.213 6.37045C261.86 6.51844 261.554 6.72025 261.302 6.97587C261.051 7.23149 260.847 7.5342 260.704 7.89073C260.561 8.24726 260.487 8.62397 260.487 9.03431C260.487 9.45138 260.561 9.84154 260.704 10.1913C260.847 10.5479 261.051 10.8506 261.309 11.1129C261.567 11.3753 261.873 11.5771 262.22 11.7251C262.567 11.8731 262.947 11.9471 263.348 11.9471C264.232 11.9471 265.027 11.5771 265.734 10.8304V14.0728L265.456 14.1737C265.034 14.3217 264.64 14.4293 264.273 14.5033C263.906 14.5706 263.545 14.6109 263.185 14.6109C262.451 14.6109 261.751 14.4764 261.078 14.2006C260.405 13.9248 259.814 13.5414 259.297 13.0436C258.787 12.5458 258.373 11.9538 258.06 11.2676C257.747 10.5815 257.598 9.83481 257.598 9.02758C257.598 8.22035 257.747 7.47366 258.053 6.80097C258.359 6.12828 258.767 5.54303 259.283 5.05197C259.793 4.5609 260.391 4.18419 261.071 3.90839C261.751 3.63259 262.458 3.49805 263.199 3.49805C263.62 3.49805 264.042 3.54514 264.45 3.63259C264.857 3.72004 265.286 3.8613 265.741 4.04293V7.30549H265.734Z" fill="#50AC28"/>
<path d="M270.962 3.78711V14.3148H268.195V3.78711H270.962Z" fill="#50AC28"/>
<path d="M280.41 12.485H276.461L275.829 14.3148H272.879L276.93 3.78711H279.948L283.999 14.3148H281.049L280.41 12.485ZM279.683 10.4064L278.439 6.90168L277.195 10.4064H279.683Z" fill="#50AC28"/>
<path d="M288.683 3.78711V12.0007H292V14.3215H285.916V3.78711H288.683Z" fill="#50AC28"/>
<path d="M227.553 23.2415C227.254 22.9994 226.948 22.8177 226.649 22.7034C226.35 22.589 226.057 22.5285 225.772 22.5285C225.412 22.5285 225.119 22.6092 224.895 22.7774C224.671 22.9455 224.555 23.1608 224.555 23.4366C224.555 23.625 224.61 23.7797 224.725 23.9008C224.841 24.0219 224.983 24.1295 225.167 24.2169C225.35 24.3044 225.554 24.3851 225.786 24.4457C226.017 24.5129 226.241 24.5802 226.472 24.6542C227.376 24.9502 228.035 25.3471 228.457 25.8516C228.878 26.3494 229.082 27.0019 229.082 27.8024C229.082 28.3405 228.987 28.8316 228.804 29.2689C228.62 29.7061 228.355 30.0828 228.002 30.3923C227.648 30.7017 227.213 30.9439 226.703 31.1188C226.193 31.2937 225.609 31.3744 224.963 31.3744C223.617 31.3744 222.373 30.9775 221.224 30.1904L222.407 27.984C222.822 28.3473 223.23 28.6163 223.637 28.7912C224.045 28.9661 224.44 29.0536 224.834 29.0536C225.282 29.0536 225.622 28.9527 225.84 28.7442C226.064 28.5423 226.173 28.3069 226.173 28.0446C226.173 27.8831 226.146 27.7486 226.091 27.6342C226.037 27.5199 225.942 27.4122 225.806 27.3113C225.677 27.2104 225.5 27.123 225.289 27.0422C225.079 26.9615 224.82 26.8673 224.521 26.7597C224.161 26.6454 223.814 26.5243 223.468 26.3897C223.121 26.2552 222.815 26.0736 222.55 25.8516C222.285 25.6296 222.067 25.3471 221.897 25.004C221.734 24.6609 221.653 24.2304 221.653 23.7124C221.653 23.1944 221.741 22.7168 221.911 22.293C222.088 21.8692 222.332 21.506 222.645 21.2033C222.958 20.9006 223.345 20.6651 223.801 20.4969C224.256 20.3288 224.766 20.248 225.33 20.248C225.853 20.248 226.404 20.322 226.982 20.4633C227.553 20.6046 228.103 20.8198 228.634 21.0956L227.553 23.2415Z" fill="#50AC28"/>
<path d="M235.635 22.8647V31.0783H232.868V22.8647H230.598V20.5439H237.912V22.8647H235.635Z" fill="#50AC28"/>
<path d="M239.265 25.8113C239.265 25.031 239.408 24.2978 239.7 23.6251C239.992 22.9524 240.393 22.3604 240.917 21.8559C241.433 21.3514 242.052 20.9612 242.772 20.6787C243.493 20.3961 244.288 20.2549 245.152 20.2549C246.008 20.2549 246.797 20.3961 247.524 20.6787C248.251 20.9612 248.87 21.3581 249.393 21.8559C249.917 22.3604 250.324 22.9457 250.617 23.6251C250.909 24.2978 251.052 25.031 251.052 25.8113C251.052 26.5916 250.902 27.3249 250.617 27.9976C250.324 28.6703 249.917 29.2622 249.393 29.7668C248.87 30.2713 248.244 30.6614 247.524 30.944C246.797 31.2265 246.008 31.3678 245.152 31.3678C244.288 31.3678 243.493 31.2265 242.772 30.944C242.052 30.6614 241.433 30.2646 240.917 29.7668C240.4 29.2622 239.992 28.677 239.7 27.9976C239.408 27.3182 239.265 26.5916 239.265 25.8113ZM242.161 25.8113C242.161 26.2284 242.242 26.6186 242.399 26.9684C242.562 27.3249 242.772 27.6276 243.051 27.8899C243.323 28.1523 243.642 28.3541 244.003 28.4954C244.363 28.6366 244.75 28.7106 245.152 28.7106C245.559 28.7106 245.94 28.6366 246.3 28.4954C246.661 28.3541 246.98 28.1456 247.259 27.8899C247.537 27.6276 247.755 27.3249 247.918 26.9684C248.081 26.6118 248.156 26.2284 248.156 25.8113C248.156 25.3943 248.074 25.0041 247.918 24.6543C247.755 24.2978 247.537 23.9951 247.259 23.7327C246.98 23.4704 246.661 23.2685 246.3 23.1273C245.94 22.986 245.553 22.912 245.152 22.912C244.744 22.912 244.363 22.986 244.003 23.1273C243.642 23.2685 243.323 23.4771 243.051 23.7327C242.779 23.9883 242.562 24.2978 242.399 24.6543C242.235 25.0041 242.161 25.3875 242.161 25.8113Z" fill="#50AC28"/>
<path d="M262.349 31.0716H258.903L256.265 27.022V31.0716H253.499V20.5439H257.802C258.393 20.5439 258.91 20.6314 259.351 20.7996C259.793 20.9745 260.16 21.2099 260.446 21.5059C260.731 21.8019 260.949 22.145 261.098 22.5418C261.241 22.932 261.316 23.3491 261.316 23.7998C261.316 24.6003 261.119 25.2528 260.731 25.7506C260.344 26.2484 259.766 26.5847 259.005 26.7664L262.349 31.0716ZM256.265 25.2528H256.789C257.333 25.2528 257.754 25.1384 258.046 24.9164C258.339 24.6945 258.481 24.3716 258.481 23.9545C258.481 23.5374 258.339 23.2145 258.046 22.9925C257.754 22.7706 257.333 22.6562 256.789 22.6562H256.265V25.2528Z" fill="#50AC28"/>
<path d="M270.268 22.8647H266.978V24.6272H270.085V26.948H266.978V28.7642H270.268V31.085H264.212V20.5439H270.268V22.8647Z" fill="#50AC28"/>
</svg>
