<?xml version="1.0" encoding="utf-8"?>
<svg xmlns="http://www.w3.org/2000/svg" viewBox="391.306 224.939 213.418 39.412" xmlns:bx="https://boxy-svg.com" width="213.418px" height="39.412px"><defs><bx:export><bx:file format="svg" path="Bez nazwy.svg"/></bx:export></defs><path fill-rule="evenodd" clip-rule="evenodd" d="M 482.406 249.722 L 474.772 249.722 L 478.79 240.593 L 482.406 249.722 Z M 483.704 233.234 L 474.732 233.234 L 462.054 261.11 L 469.864 261.11 L 472.142 255.884 L 484.663 255.884 L 486.79 261.11 L 495.253 261.11 C 495.26 261.11 483.704 233.234 483.704 233.234 Z" fill="black" style="stroke-width: 1;"/><path fill-rule="evenodd" clip-rule="evenodd" d="M 594.524 233.133 L 595.278 233.133 C 595.645 233.133 595.89 233.079 596.019 232.972 C 596.148 232.864 596.216 232.723 596.216 232.548 C 596.216 232.433 596.182 232.332 596.121 232.245 C 596.06 232.158 595.971 232.09 595.856 232.043 C 595.747 232.003 595.53 231.976 595.231 231.976 L 594.524 231.976 L 594.524 233.133 Z M 593.898 235.286 L 593.898 231.458 L 595.224 231.458 C 595.679 231.458 596.005 231.492 596.209 231.566 C 596.413 231.633 596.576 231.761 596.699 231.936 C 596.821 232.11 596.882 232.299 596.882 232.494 C 596.882 232.77 596.78 233.019 596.576 233.227 C 596.379 233.429 596.107 233.55 595.774 233.577 C 595.91 233.631 596.019 233.698 596.107 233.779 C 596.264 233.933 596.454 234.182 596.678 234.539 L 597.147 235.286 L 596.386 235.286 L 596.046 234.68 C 595.774 234.209 595.557 233.913 595.394 233.792 C 595.278 233.705 595.115 233.658 594.891 233.658 L 594.524 233.658 L 594.524 235.279 C 594.524 235.286 593.898 235.286 593.898 235.286 Z M 595.475 230.348 C 594.965 230.348 594.483 230.476 594 230.731 C 593.524 230.987 593.15 231.357 592.879 231.828 C 592.607 232.299 592.471 232.797 592.471 233.315 C 592.471 233.826 592.6 234.317 592.865 234.788 C 593.13 235.259 593.497 235.622 593.973 235.884 C 594.449 236.147 594.945 236.274 595.462 236.274 C 595.978 236.274 596.474 236.14 596.95 235.884 C 597.426 235.622 597.8 235.259 598.058 234.788 C 598.323 234.317 598.453 233.826 598.453 233.315 C 598.453 232.797 598.317 232.299 598.051 231.828 C 597.78 231.35 597.406 230.987 596.93 230.731 C 596.468 230.483 595.978 230.348 595.475 230.348 Z M 595.475 229.763 C 596.08 229.763 596.665 229.917 597.243 230.22 C 597.82 230.523 598.269 230.967 598.588 231.532 C 598.908 232.104 599.064 232.696 599.064 233.315 C 599.064 233.927 598.908 234.512 598.595 235.077 C 598.276 235.642 597.834 236.079 597.263 236.396 C 596.692 236.712 596.101 236.866 595.475 236.866 C 594.857 236.866 594.258 236.712 593.687 236.396 C 593.117 236.086 592.675 235.649 592.355 235.077 C 592.036 234.512 591.879 233.927 591.879 233.315 C 591.879 232.696 592.043 232.097 592.362 231.532 C 592.681 230.967 593.13 230.523 593.708 230.22 C 594.279 229.917 594.87 229.763 595.475 229.763 Z" fill="black" style="stroke-width: 1;"/><path fill-rule="evenodd" clip-rule="evenodd" d="M 576.632 238.757 C 570.902 238.757 567.102 242.059 567.102 247.098 C 567.102 252.318 570.787 255.628 576.632 255.628 C 582.417 255.628 586.163 252.325 586.163 247.179 C 586.163 242.066 582.417 238.757 576.632 238.757 Z M 576.632 232.588 C 581.398 232.588 585.197 233.59 588.29 235.595 C 592.144 238.185 593.918 241.777 593.918 247.172 C 593.918 252.56 592.144 256.159 588.29 258.749 C 585.252 260.754 581.343 261.763 576.687 261.763 C 571.922 261.763 568.068 260.754 565.029 258.749 C 561.025 256.072 559.353 252.56 559.353 246.923 C 559.353 241.784 561.229 238.104 565.029 235.595 C 568.115 233.59 571.922 232.588 576.632 232.588 Z" fill="black" style="stroke-width: 1;"/><path fill-rule="evenodd" clip-rule="evenodd" d="M 547.41 233.241 C 553.344 233.241 556.811 237.324 556.872 241.649 C 556.872 247.683 553.997 250.529 548.967 250.986 L 557.77 261.11 L 549.273 261.11 L 540.701 251.215 L 537.309 251.215 L 537.309 261.11 L 529.839 261.11 L 529.839 233.234 C 529.825 233.241 547.41 233.241 547.41 233.241 Z M 537.363 239.456 L 547.036 239.456 C 550.843 239.88 550.557 244.69 547.125 244.898 L 537.363 244.898 C 537.363 244.892 537.363 239.456 537.363 239.456 Z" fill="black" style="stroke-width: 1;"/><path fill-rule="evenodd" clip-rule="evenodd" d="M 504.885 245.571 L 517.379 233.241 L 526.549 233.241 L 514.748 244.784 L 526.977 261.11 L 517.943 261.11 L 509.555 249.85 L 504.878 254.35 L 504.878 261.11 L 497.265 261.11 L 497.265 233.241 L 504.872 233.241 L 504.885 245.571 Z" fill="black" style="stroke-width: 1;"/><path fill-rule="evenodd" clip-rule="evenodd" d="M 448.004 244.979 L 448.004 239.43 L 466.466 239.43 L 466.466 233.241 L 440.275 233.241 L 440.275 261.11 L 448.004 261.11 L 448.004 251.034 L 460.6 251.034 L 460.6 244.979 L 448.004 244.979 Z" fill="black" style="stroke-width: 1;"/><path fill-rule="evenodd" clip-rule="evenodd" d="M 433.981 233.227 L 407.803 233.227 L 391.53 261.117 L 417.707 261.117 L 433.981 233.227 Z" fill="#50AC28" style="stroke-width: 1;"/><path d="M 433.981 233.227 L 407.803 233.227 L 391.53 261.117 L 417.707 261.117 L 433.981 233.227 Z" stroke="#50AC28" stroke-width="0.00028" stroke-miterlimit="22.9256" style="stroke-width: 0;"/></svg>