<svg viewBox="0 0 138 33" fill="none" xmlns="http://www.w3.org/2000/svg"><path d="M76.744 13.893v-4.09H57.999c-1.622 0-3.064 1.124-3.064 2.742v1.753h13.247l-11.22 11.326s-.45.404-.675.809l-.316-.585-6.759-13.663c-.72-1.438-1.757-2.651-3.199-2.651-1.307 0-2.163.719-3.2 2.831l-3.739 7.91-3.92-7.91c-.946-1.888-1.803-2.786-3.2-2.786-1.306 0-2.252.494-3.379 2.831l-9.282 19.686h3.2c2.297 0 3.469-1.08 4.1-2.517l3.785-8.45c.63-1.483 1.712-1.483 2.388 0l3.92 8.584c.856 1.933 3.244 2.023 4.145 0l3.785-8.539c.631-1.483 1.713-1.483 2.388 0l3.92 8.54c.631 1.393 1.758 2.471 3.966 2.471h18.925c1.622 0 3.605-1.348 3.605-2.966v-1.753H63.18l13.564-13.573zm6.396-4.09h-3.288V32.14h3.289c1.622 0 2.929-1.213 2.929-2.831V12.725c0-1.888-.946-2.922-2.93-2.922zm23.206 2.922v9.708c0 .898.09 1.393.09 1.393l-1.757-2.337-6.894-9.439c-1.397-1.707-2.298-2.247-4.777-2.247h-3.38v22.293h2.57a2.92 2.92 0 002.928-2.922v-9.213c0-1.124-.18-1.573-.135-1.573 0 0 .811 1.033 1.757 2.337l6.669 8.988c1.217 1.528 2.749 2.383 4.957 2.383h3.514V9.803h-2.568c-1.667 0-2.974 1.349-2.974 2.922zm31.585 13.708c-2.479 1.078-5.408 1.797-8.427 1.797-5.091 0-8.786-2.741-8.786-7.1 0-4.585 3.379-7.596 8.832-7.596 2.298 0 5.001.45 7.705 1.663v-1.618c0-3.55-5.768-4.135-9.237-4.135-8.156 0-13.428 3.73-13.428 11.955 0 7.19 5.497 11.056 13.337 11.056 8.472 0 10.049-2.652 10.049-4.764l-.045-1.258z" fill="#631D76"/><path d="M22.895 9.803c-2.479 0-3.65 1.079-4.281 2.517l-3.83 8.584c-.631 1.484-1.758 1.484-2.388 0L8.7 12.32c-.676-1.438-2.208-2.517-4.416-2.517H.5l9.508 19.686c1.171 2.157 2.117 2.876 3.244 2.876 1.126 0 2.388-.809 3.29-2.607l9.371-19.955h-3.018z" fill="url(#paint0_radial)"/><path d="M82.96.5c-1.982 0-3.604 1.618-3.604 3.64 0 2.023 1.622 3.64 3.604 3.64 1.983 0 3.605-1.617 3.605-3.64 0-2.022-1.622-3.64-3.605-3.64z" fill="url(#paint1_radial)"/><defs><radialGradient id="paint0_radial" cx="0" cy="0" r="1" gradientUnits="userSpaceOnUse" gradientTransform="matrix(25.4147 0 0 25.3398 .5 9.806)"><stop stop-color="#F99D1C"/><stop offset=".15" stop-color="#F7941D"/><stop offset="1" stop-color="#D93B20"/></radialGradient><radialGradient id="paint1_radial" cx="0" cy="0" r="1" gradientUnits="userSpaceOnUse" gradientTransform="matrix(6.24036 0 0 6.21065 83.853 1.625)"><stop stop-color="#F99D1C"/><stop offset=".15" stop-color="#F7941D"/><stop offset="1" stop-color="#D93B20"/></radialGradient></defs></svg>