<?xml version="1.0" encoding="UTF-8"?>
<svg id="Warstwa_2" xmlns="http://www.w3.org/2000/svg" version="1.1" viewBox="0 0 207 70.1">
  <!-- Generator: Adobe Illustrator 29.2.1, SVG Export Plug-In . SVG Version: 2.1.0 Build 116)  -->
  <defs>
    <style>
      .st0 {
        fill: #fff;
      }

      .st1 {
        fill: #e30613;
      }

      .st2 {
        fill: #e20613;
      }
    </style>
  </defs>
  <g>
    <path class="st1" d="M8.3,28.8l-2.3-6h.8l1.9,5,1.9-5h.7l-2.3,6v4.9h-.7v-4.9Z"/>
    <path class="st1" d="M12.5,22.8h4.3v.7h-3.6v4.2h2.9v.7h-2.9v4.7h3.6v.7h-4.3v-10.9Z"/>
    <path class="st1" d="M21.8,31.2h-3.1l-.5,2.5h-.7l2.3-10.9h1l2.3,10.9h-.7l-.5-2.5ZM21.7,30.5l-1.4-6.8-1.4,6.8h2.8Z"/>
    <path class="st1" d="M24.3,22.8h2.2c1.7,0,2.4.7,2.4,2.5v.7c0,1.3-.4,2-1.4,2.2h0c1,.2,1.4.9,1.4,2.2v2c0,.5,0,1,.1,1.3h-.7c0-.3-.1-.7-.1-1.3v-2c0-1.3-.5-1.8-1.8-1.8h-1.4v5.2h-.7v-10.9ZM26.3,27.9c1.3,0,1.8-.5,1.8-1.8v-.7c0-1.3-.5-1.9-1.7-1.9h-1.5v4.4h1.4Z"/>
    <path class="st1" d="M30.1,31.3v-.6h.7v.6c0,1.2.6,1.8,1.7,1.8s1.7-.6,1.7-1.8-.5-1.8-1.9-2.9c-1.6-1.2-2.1-2.1-2.1-3.3s.9-2.5,2.3-2.5,2.3.9,2.3,2.5v.4h-.7v-.5c0-1.2-.6-1.8-1.6-1.8s-1.6.7-1.6,1.8.5,1.7,1.9,2.9c1.6,1.2,2.1,2.1,2.1,3.4s-.9,2.5-2.4,2.5-2.3-.9-2.3-2.5Z"/>
  </g>
  <path class="st1" d="M60,14.5c-.5,0-1.1,0-1.6,0s-1,0-1.4.1-1,.1-1.5.2-.8.1-1.1.2-.9.2-1.3.3-1.1.3-1.6.5l4.2-13.2h21.4V0h-23.3l-5.7,18.1-1,3.2.6-.4c3.7-2.3,8-3.6,12.4-3.6s4.9.4,7.2,1.1,1.7.6,2.5.9,1.5.7,2.2,1.1,1.5.9,2.3,1.5,1.4,1.1,2.1,1.7,1.2,1.2,1.8,1.9,1.4,1.7,2,2.6.8,1.3,1.2,2c.6,1.1,1.1,2.2,1.5,3.4s.6,1.8.8,2.8.4,2,.5,3,.1,1.8.1,2.8,0,2.1-.2,3.1-.3,2-.6,3-.3,1.1-.5,1.7c-.4,1.1-.8,2.2-1.3,3.3s-.5,1-.8,1.5-.7,1.2-1.1,1.7c-.6.9-1.3,1.8-2.1,2.6s-1,1-1.5,1.5-1.4,1.2-2.1,1.8-1.8,1.2-2.8,1.8-1.3.7-1.9.9c-1.9.8-4,1.4-6.1,1.7s-2.1.2-3.1.2c-2.4,0-4.8-.4-7-1.1s-2.6-1-3.8-1.6-2.4-1.4-3.5-2.3c1-1,1.9-2.1,2.7-3.2s2.1-3.1,2.8-4.8,1.5-3.8,2-5.9.6-3.9.6-6c0-14-10-25.8-23.5-27.5L44.3,0H14.8v2.7h23.2l-12.4,13-1.7,1.8h.8c.7-.1,1.5-.2,2.2-.2,13.3,0,24.1,11.2,24.1,24.9,0,1.5-.1,3-.4,4.4s-.6,2.8-1.1,4.1-.8,2-1.2,2.9c-.7,1.5-1.6,2.9-2.6,4.1s-1.4,1.7-2.2,2.5c-4.6-4.5-7.5-10.8-7.6-17.8v-.3h-2.8v.3c0,7.7,3.2,14.7,8.2,19.7-.7.6-1.5,1.1-2.2,1.5s-1.6.9-2.4,1.3c-1.5.7-3.1,1.2-4.7,1.6s-3.3.6-5.1.6c-2.5,0-4.9-.4-7.2-1.1s-3.8-1.5-5.5-2.6-2.6-1.9-3.8-3-2-2.1-2.8-3.2-1.4-2.1-2-3.2-1.2-2.7-1.7-4.1c-.7-2.3-1.1-4.8-1.2-7.4v-.3H0v.3c0,3.9.8,7.6,2.3,10.9s1.2,2.5,1.9,3.7,1,1.5,1.5,2.2,1.3,1.6,1.9,2.3,1.4,1.4,2.1,2,1.2,1,1.8,1.4c1,.7,2,1.4,3.1,1.9s1.4.7,2.1,1c1.1.5,2.3.9,3.5,1.2s1.8.4,2.8.6,2.5.3,3.8.3,2.2,0,3.2-.2,2.8-.5,4.2-.9,2.1-.7,3.1-1.1,1.1-.5,1.6-.8,1.3-.7,2-1.1,1.7-1.2,2.5-1.8c1.1.9,2.4,1.8,3.6,2.5s3,1.5,4.6,2.1c2.6.9,5.4,1.4,8.3,1.4s4.1-.2,6-.7,2.9-.8,4.3-1.4,1.2-.6,1.8-.9,1.7-.9,2.5-1.5.9-.6,1.4-1c.7-.6,1.4-1.2,2.1-1.8s1.1-1,1.6-1.6,1.1-1.2,1.6-1.9,1.2-1.7,1.7-2.6,1-1.9,1.5-2.8,1.1-2.8,1.5-4.3c.6-2.3.9-4.8.9-7.3s0-2.4-.2-3.5-.4-2.5-.7-3.6-.6-2.1-1-3.1-.7-1.7-1.1-2.6-.8-1.6-1.3-2.3-.9-1.3-1.4-2-.9-1.2-1.4-1.7-1.2-1.3-1.8-1.9-1.1-1-1.7-1.4-1.7-1.2-2.5-1.8-1.6-.9-2.5-1.3-1.4-.6-2.2-.9-.9-.3-1.4-.5-1.1-.3-1.7-.5-1.1-.2-1.7-.3-1.3-.2-1.9-.2-1.6-.1-2.4-.1Z"/>
  <rect class="st1" x="100.9" y="0" width="2" height="70"/>
  <g>
    <polygon class="st2" points="152.6 49 152.4 49 152.4 49.2 152.4 58.9 152.4 59 152.6 59 154.7 59 154.9 59 154.9 58.9 154.9 49.2 154.9 49 154.7 49 152.6 49"/>
    <path class="st2" d="M187.9,53h-2.7c-.4,0-.7,0-.9-.2-.2-.1-.3-.4-.3-.7s.1-.7.3-.8c.2-.2.6-.3,1.1-.3h5.2v-2.1h-5.5c-1.2,0-2.1.2-2.7.7-.6.5-.9,1.3-.9,2.4s.3,1.8.8,2.3c.6.5,1.4.7,2.6.7h2.4c.5,0,.8,0,1,.2.2.1.3.4.3.7s0,.6-.3.7c-.2.1-.6.2-1.1.2h0s-5.1,0-5.1,0h-.2v2.1h5.6c1.2,0,2.1-.2,2.7-.7.6-.5.9-1.3.9-2.4s0-1.1-.2-1.4-.3-.6-.6-.8c-.3-.3-.8-.5-1.3-.6s-.7,0-1.1,0"/>
    <polygon class="st2" points="165.7 49 165.6 49 165.6 49.1 163.3 56 161 49.1 160.9 49 160.8 49 157.8 49 157.6 49 157.6 49.2 157.6 58.9 157.6 59 157.8 59 159.9 59 160.1 59 160.1 58.9 159.9 52.4 162.1 58.9 162.1 59 162.2 59 164.4 59 164.5 59 164.6 58.9 166.7 52.5 166.6 58.9 166.5 59 166.7 59 168.7 59 168.9 59 168.9 58.9 168.9 49.2 168.9 49 168.7 49 165.7 49"/>
    <path class="st2" d="M146,57.1c0-.1,0-1.9,0-2.2v-5.7s0-.2,0-.2h-2.4v6c0,1.7,0,2.7,0,4.1,0,0,5.8,0,7,0v-.2s0-1.6,0-1.6v-.2c-1.5,0-3.1,0-4.6,0"/>
    <path class="st2" d="M132.9,49h-.1v10.1h2.5v-2c-1.1-1.5-2.4-3.1-2.4-3.1l2.4-2.9v-2h-2.4Z"/>
    <path class="st2" d="M138.2,53.9l3.8-4.6.2-.3h-3c0,0-4,4.9-4,4.9,0,0,3.3,4.3,3.9,5.1h3.1l-.2-.3-3.8-4.9Z"/>
    <path class="st2" d="M176.8,49.1h0c0-.1-.1-.1-.1-.1h-2.3c0,.1-4.1,9.8-4.1,9.8v.2c-.1,0,.2,0,.2,0h2.3c0-.1.8-2.3.8-2.3h4l.9,2.2h0c0,.1.1.1.1.1h2.6v-.2c-.1,0-4.3-9.7-4.3-9.7ZM174.3,54.7l1.2-3.1,1.2,3.1h-2.4Z"/>
    <polygon class="st2" points="207 26.1 162 11.1 117 26.1 117 43 207 43 207 26.1"/>
    <path class="st0" d="M134.2,33.7h0c-.5-2.2-1-4.5-1.5-6.7h-2.4c-.5,2.2-1,4.5-1.5,6.7h0c-.2-.7-1.3-6-1.5-6.7h-2.6c.9,3.4,1.8,6.7,2.7,10.1h2.7c.5-2.2,1-4.5,1.4-6.7h0c.2.7,1.3,6,1.5,6.7h2.7c.9-3.4,1.8-6.7,2.6-10.1h-2.6c-.5,2.2-1,4.5-1.5,6.7"/>
    <path class="st0" d="M146.6,29.8h-2.9c-.4.4-1.7,2-2.2,2.4v-5.2h-2.4v10.1h2.4v-2.2c.1-.1.5-.6.7-.7l1.8,2.9h2.9c-.5-.8-2.5-3.8-3-4.5l2.7-2.8Z"/>
    <path class="st0" d="M150,31h0v-1.3h-2.2v7.3h2.4v-3c0-1.4.6-2.3,1.9-2.3s.4,0,.6,0v-2.3c-.2,0-.3,0-.4,0-1.1,0-1.8.4-2.3,1.5"/>
    <path class="st0" d="M160.5,31.4c-.6-1.2-1.8-1.9-3.4-1.9-2.3,0-3.9,1.6-3.9,3.9s1.6,3.8,3.9,3.9c-.4.3-.6.7-.6,1.1,0,.9.8,1.3,1.9,1.3s1.1,0,1.5-.2v-1.2c-.1,0-.3,0-.6,0s-.6-.1-.6-.5.9-1.2,1.3-1.6c.4-.4.7-.9.9-1.5h-2.4c-.2.5-.7.8-1.3.8-1,0-1.6-.7-1.6-1.6h5.4c0-.8-.1-1.9-.5-2.6M155.7,32.6c0-.9.6-1.5,1.5-1.5s1.4.6,1.5,1.5h-3Z"/>
    <path class="st0" d="M165.2,27.5h-2.4v2.3h-1.1v1.5h1.1v3.1c0,.3,0,.7,0,1.1,0,.3,0,.6.2.8.4.7,1.2,1,1.9,1h0c.5,0,1,0,1.6,0v-1.8c-.2,0-.4,0-.5,0-.6,0-.8-.2-.8-.8v-3.2h1.3v-1.5h-1.3v-2.3Z"/>
    <rect class="st0" x="167.3" y="32.1" width="4" height="2.2"/>
    <path class="st0" d="M181.7,29.6c-1.1,0-1.8.4-2.4,1.3-.4-.9-1.1-1.3-2.2-1.3s-1.8.5-2.3,1.3v-1.1h-2.2v7.3h2.4v-3.8c0-1,.4-1.7,1.3-1.7s1,1.2,1,1.9v3.6h2.4v-3.7c0-.8.2-1.8,1.3-1.8s1,1.1,1,1.9v3.6h2.4v-4.4c0-1.8-.6-3.1-2.6-3.1"/>
    <path class="st0" d="M192.8,31.4c-.6-1.2-1.8-1.9-3.4-1.9-2.3,0-3.9,1.6-3.9,3.9s1.6,3.9,3.9,3.9,2.2-.3,2.9-1c.4-.4.7-.9.9-1.5h-2.4c-.2.5-.7.8-1.3.8-1,0-1.6-.7-1.6-1.6h5.4c0-.8-.1-1.9-.5-2.6M188,32.6c0-.9.6-1.5,1.5-1.5s1.4.6,1.5,1.5h-3Z"/>
    <path class="st0" d="M192.8,24.7c-.3-.3-.8-.5-1.3-.5h0s0,0,0,0c-.5,0-1,.2-1.3.5-.3.3-.5.8-.5,1.3h0,0c0,.5.2,1,.5,1.3.3.3.8.5,1.3.5h0s0,0,0,0h0c.5,0,1-.2,1.3-.5.3-.3.5-.8.5-1.3h0,0c0-.5-.2-1-.5-1.3M193,26c0,.4-.2.8-.4,1.1-.3.3-.6.4-1.1.4h0s0,0,0,0h0c-.4,0-.8-.2-1.1-.4s-.4-.6-.4-1.1h0,0c0-.4.2-.8.4-1.1.3-.3.6-.4,1.1-.4h0s0,0,0,0c.4,0,.8.2,1.1.4.3.3.4.6.4,1.1h0,0Z"/>
    <path class="st0" d="M192,26.3c0,0-.1-.1-.2-.2.2,0,.3,0,.4-.2,0-.1.1-.2.1-.4s0-.2,0-.3c0,0-.1-.1-.2-.2,0,0-.3,0-.5,0h-.8v2h.4v-.8h0c.1,0,.2,0,.2,0,0,0,0,0,.1,0,0,0,.1.1.2.3l.3.4h.5l-.3-.4c0-.1-.2-.3-.2-.3M191.3,25.9h-.3v-.5h.3c.2,0,.3,0,.3,0,0,0,.1,0,.1,0,0,0,0,.1,0,.2s0,.1,0,.1c0,0,0,0-.1,0,0,0-.2,0-.4,0"/>
    <path class="st0" d="M198.8,31.2v-1.5h-1.3v-2.3h-2.4v2.3h-1.1v1.5h1.1v3.1c0,.3,0,.7,0,1.1,0,.3,0,.6.2.8.4.7,1.2,1,1.9,1h0c.5,0,1,0,1.6,0v-1.8c-.2,0-.4,0-.5,0-.6,0-.8-.2-.8-.8v-3.2h1.3Z"/>
  </g>
</svg>